<mxfile host="app.diagrams.net" modified="2023-06-01T16:30:47.899Z" agent="Mozilla/5.0 (Windows NT 10.0; Win64; x64) AppleWebKit/537.36 (KHTML, like Gecko) Chrome/113.0.0.0 Safari/537.36" etag="6Q5-nEp0QpecOD-ls8hM" version="21.2.9" type="device">
  <diagram id="C5RBs43oDa-KdzZeNtuy" name="Page-1">
    <mxGraphModel dx="4513" dy="2715" grid="1" gridSize="10" guides="1" tooltips="1" connect="1" arrows="1" fold="1" page="1" pageScale="1" pageWidth="827" pageHeight="1169" math="0" shadow="0">
      <root>
        <mxCell id="WIyWlLk6GJQsqaUBKTNV-0" />
        <mxCell id="WIyWlLk6GJQsqaUBKTNV-1" parent="WIyWlLk6GJQsqaUBKTNV-0" />
        <mxCell id="sqdQiwpJzlFbT6sFjuYa-8" value="&lt;b&gt;Wall&lt;/b&gt;" style="swimlane;fontStyle=0;childLayout=stackLayout;horizontal=1;startSize=30;horizontalStack=0;resizeParent=1;resizeParentMax=0;resizeLast=0;collapsible=1;marginBottom=0;whiteSpace=wrap;html=1;fontFamily=Helvetica;fontColor=#000000;" parent="WIyWlLk6GJQsqaUBKTNV-1" vertex="1">
          <mxGeometry x="-190" y="425" width="340" height="540" as="geometry" />
        </mxCell>
        <mxCell id="A-M6z1SIhGvRbmHf0a0M-6" value="- light_grey : GL&lt;font&gt;float[3];&lt;/font&gt;" style="text;strokeColor=none;fillColor=none;align=left;verticalAlign=middle;spacingLeft=4;spacingRight=4;overflow=hidden;points=[[0,0.5],[1,0.5]];portConstraint=eastwest;rotatable=0;whiteSpace=wrap;html=1;fontFamily=Helvetica;fontColor=#000000;" vertex="1" parent="sqdQiwpJzlFbT6sFjuYa-8">
          <mxGeometry y="30" width="340" height="30" as="geometry" />
        </mxCell>
        <mxCell id="A-M6z1SIhGvRbmHf0a0M-7" value="- grey :&amp;nbsp;&lt;font&gt;GL&lt;font style=&quot;border-color: var(--border-color);&quot;&gt;float&lt;/font&gt;[3];&lt;/font&gt;" style="text;strokeColor=none;fillColor=none;align=left;verticalAlign=middle;spacingLeft=4;spacingRight=4;overflow=hidden;points=[[0,0.5],[1,0.5]];portConstraint=eastwest;rotatable=0;whiteSpace=wrap;html=1;fontFamily=Helvetica;fontColor=#000000;" vertex="1" parent="sqdQiwpJzlFbT6sFjuYa-8">
          <mxGeometry y="60" width="340" height="30" as="geometry" />
        </mxCell>
        <mxCell id="A-M6z1SIhGvRbmHf0a0M-8" value="- dark_grey :&amp;nbsp;&lt;font&gt;GL&lt;font style=&quot;border-color: var(--border-color);&quot;&gt;float&lt;/font&gt;[3];&lt;/font&gt;" style="text;strokeColor=none;fillColor=none;align=left;verticalAlign=middle;spacingLeft=4;spacingRight=4;overflow=hidden;points=[[0,0.5],[1,0.5]];portConstraint=eastwest;rotatable=0;whiteSpace=wrap;html=1;fontFamily=Helvetica;fontColor=#000000;" vertex="1" parent="sqdQiwpJzlFbT6sFjuYa-8">
          <mxGeometry y="90" width="340" height="30" as="geometry" />
        </mxCell>
        <mxCell id="A-M6z1SIhGvRbmHf0a0M-9" value="- black :&amp;nbsp;&lt;font&gt;GL&lt;font style=&quot;border-color: var(--border-color);&quot;&gt;float&lt;/font&gt;[3];&lt;/font&gt;" style="text;strokeColor=none;fillColor=none;align=left;verticalAlign=middle;spacingLeft=4;spacingRight=4;overflow=hidden;points=[[0,0.5],[1,0.5]];portConstraint=eastwest;rotatable=0;whiteSpace=wrap;html=1;fontFamily=Helvetica;fontColor=#000000;" vertex="1" parent="sqdQiwpJzlFbT6sFjuYa-8">
          <mxGeometry y="120" width="340" height="30" as="geometry" />
        </mxCell>
        <mxCell id="A-M6z1SIhGvRbmHf0a0M-10" value="- blue :&amp;nbsp;&lt;font&gt;GL&lt;font style=&quot;border-color: var(--border-color);&quot;&gt;float&lt;/font&gt;[3];&lt;/font&gt;" style="text;strokeColor=none;fillColor=none;align=left;verticalAlign=middle;spacingLeft=4;spacingRight=4;overflow=hidden;points=[[0,0.5],[1,0.5]];portConstraint=eastwest;rotatable=0;whiteSpace=wrap;html=1;fontFamily=Helvetica;fontColor=#000000;" vertex="1" parent="sqdQiwpJzlFbT6sFjuYa-8">
          <mxGeometry y="150" width="340" height="30" as="geometry" />
        </mxCell>
        <mxCell id="A-M6z1SIhGvRbmHf0a0M-11" value="- position : float;" style="text;strokeColor=none;fillColor=none;align=left;verticalAlign=middle;spacingLeft=4;spacingRight=4;overflow=hidden;points=[[0,0.5],[1,0.5]];portConstraint=eastwest;rotatable=0;whiteSpace=wrap;html=1;fontFamily=Helvetica;fontColor=#000000;" vertex="1" parent="sqdQiwpJzlFbT6sFjuYa-8">
          <mxGeometry y="180" width="340" height="30" as="geometry" />
        </mxCell>
        <mxCell id="A-M6z1SIhGvRbmHf0a0M-12" value="- cube : * Cube;" style="text;strokeColor=none;fillColor=none;align=left;verticalAlign=middle;spacingLeft=4;spacingRight=4;overflow=hidden;points=[[0,0.5],[1,0.5]];portConstraint=eastwest;rotatable=0;whiteSpace=wrap;html=1;fontFamily=Helvetica;fontColor=#000000;" vertex="1" parent="sqdQiwpJzlFbT6sFjuYa-8">
          <mxGeometry y="210" width="340" height="30" as="geometry" />
        </mxCell>
        <mxCell id="sqdQiwpJzlFbT6sFjuYa-12" value="" style="endArrow=none;html=1;rounded=0;exitX=-0.003;exitY=0.973;exitDx=0;exitDy=0;exitPerimeter=0;fontFamily=Helvetica;fontColor=#000000;entryX=0.999;entryY=-0.001;entryDx=0;entryDy=0;entryPerimeter=0;" parent="sqdQiwpJzlFbT6sFjuYa-8" source="A-M6z1SIhGvRbmHf0a0M-12" target="A-M6z1SIhGvRbmHf0a0M-15" edge="1">
          <mxGeometry width="50" height="50" relative="1" as="geometry">
            <mxPoint x="0.34999999999990905" y="270.9000000000001" as="sourcePoint" />
            <mxPoint x="340" y="239" as="targetPoint" />
          </mxGeometry>
        </mxCell>
        <mxCell id="A-M6z1SIhGvRbmHf0a0M-15" value="+ drawWallBase() : &lt;font&gt;void;&lt;/font&gt;" style="text;strokeColor=none;fillColor=none;align=left;verticalAlign=middle;spacingLeft=4;spacingRight=4;overflow=hidden;points=[[0,0.5],[1,0.5]];portConstraint=eastwest;rotatable=0;whiteSpace=wrap;html=1;fontFamily=Helvetica;fontColor=#000000;" vertex="1" parent="sqdQiwpJzlFbT6sFjuYa-8">
          <mxGeometry y="240" width="340" height="30" as="geometry" />
        </mxCell>
        <mxCell id="A-M6z1SIhGvRbmHf0a0M-16" value="+ drawWallThumb(is_drawn : &lt;font&gt;boolean&lt;/font&gt;) : &lt;font&gt;void;&lt;/font&gt;" style="text;strokeColor=none;fillColor=none;align=left;verticalAlign=middle;spacingLeft=4;spacingRight=4;overflow=hidden;points=[[0,0.5],[1,0.5]];portConstraint=eastwest;rotatable=0;whiteSpace=wrap;html=1;fontFamily=Helvetica;fontColor=#000000;" vertex="1" parent="sqdQiwpJzlFbT6sFjuYa-8">
          <mxGeometry y="270" width="340" height="30" as="geometry" />
        </mxCell>
        <mxCell id="A-M6z1SIhGvRbmHf0a0M-17" value="+ drawWallIndex(is_drawn : &lt;font&gt;boolean&lt;/font&gt;) : &lt;font&gt;void;&lt;/font&gt;" style="text;strokeColor=none;fillColor=none;align=left;verticalAlign=middle;spacingLeft=4;spacingRight=4;overflow=hidden;points=[[0,0.5],[1,0.5]];portConstraint=eastwest;rotatable=0;whiteSpace=wrap;html=1;fontFamily=Helvetica;fontColor=#000000;" vertex="1" parent="sqdQiwpJzlFbT6sFjuYa-8">
          <mxGeometry y="300" width="340" height="30" as="geometry" />
        </mxCell>
        <mxCell id="A-M6z1SIhGvRbmHf0a0M-18" value="+ drawWallMiddleFinger(is_drawn : &lt;font&gt;boolean&lt;/font&gt;) : &lt;font&gt;void;&lt;/font&gt;" style="text;strokeColor=none;fillColor=none;align=left;verticalAlign=middle;spacingLeft=4;spacingRight=4;overflow=hidden;points=[[0,0.5],[1,0.5]];portConstraint=eastwest;rotatable=0;whiteSpace=wrap;html=1;fontFamily=Helvetica;fontColor=#000000;" vertex="1" parent="sqdQiwpJzlFbT6sFjuYa-8">
          <mxGeometry y="330" width="340" height="30" as="geometry" />
        </mxCell>
        <mxCell id="A-M6z1SIhGvRbmHf0a0M-19" value="+ drawWallRingFinger(is_drawn : &lt;font&gt;boolean&lt;/font&gt;) : &lt;font&gt;void;&lt;/font&gt;" style="text;strokeColor=none;fillColor=none;align=left;verticalAlign=middle;spacingLeft=4;spacingRight=4;overflow=hidden;points=[[0,0.5],[1,0.5]];portConstraint=eastwest;rotatable=0;whiteSpace=wrap;html=1;fontFamily=Helvetica;fontColor=#000000;" vertex="1" parent="sqdQiwpJzlFbT6sFjuYa-8">
          <mxGeometry y="360" width="340" height="30" as="geometry" />
        </mxCell>
        <mxCell id="A-M6z1SIhGvRbmHf0a0M-20" value="+ drawWallLittleFinger(is_drawn : &lt;font&gt;boolean&lt;/font&gt;) : &lt;font&gt;void;&lt;/font&gt;" style="text;strokeColor=none;fillColor=none;align=left;verticalAlign=middle;spacingLeft=4;spacingRight=4;overflow=hidden;points=[[0,0.5],[1,0.5]];portConstraint=eastwest;rotatable=0;whiteSpace=wrap;html=1;fontFamily=Helvetica;fontColor=#000000;" vertex="1" parent="sqdQiwpJzlFbT6sFjuYa-8">
          <mxGeometry y="390" width="340" height="30" as="geometry" />
        </mxCell>
        <mxCell id="A-M6z1SIhGvRbmHf0a0M-21" value="+ drawLogo() : &lt;font&gt;void;&lt;/font&gt;" style="text;strokeColor=none;fillColor=none;align=left;verticalAlign=middle;spacingLeft=4;spacingRight=4;overflow=hidden;points=[[0,0.5],[1,0.5]];portConstraint=eastwest;rotatable=0;whiteSpace=wrap;html=1;fontFamily=Helvetica;fontColor=#000000;" vertex="1" parent="sqdQiwpJzlFbT6sFjuYa-8">
          <mxGeometry y="420" width="340" height="30" as="geometry" />
        </mxCell>
        <mxCell id="A-M6z1SIhGvRbmHf0a0M-22" value="+ setPosition(pos : float) : &lt;font&gt;void;&lt;/font&gt;" style="text;strokeColor=none;fillColor=none;align=left;verticalAlign=middle;spacingLeft=4;spacingRight=4;overflow=hidden;points=[[0,0.5],[1,0.5]];portConstraint=eastwest;rotatable=0;whiteSpace=wrap;html=1;fontFamily=Helvetica;fontColor=#000000;" vertex="1" parent="sqdQiwpJzlFbT6sFjuYa-8">
          <mxGeometry y="450" width="340" height="30" as="geometry" />
        </mxCell>
        <mxCell id="A-M6z1SIhGvRbmHf0a0M-23" value="+ getPosition() : &lt;font&gt;void;&lt;/font&gt;" style="text;strokeColor=none;fillColor=none;align=left;verticalAlign=middle;spacingLeft=4;spacingRight=4;overflow=hidden;points=[[0,0.5],[1,0.5]];portConstraint=eastwest;rotatable=0;whiteSpace=wrap;html=1;fontFamily=Helvetica;fontColor=#000000;" vertex="1" parent="sqdQiwpJzlFbT6sFjuYa-8">
          <mxGeometry y="480" width="340" height="30" as="geometry" />
        </mxCell>
        <mxCell id="A-M6z1SIhGvRbmHf0a0M-24" value="+ configuration : bool[8][5]&lt;font&gt;;&lt;/font&gt;" style="text;strokeColor=none;fillColor=none;align=left;verticalAlign=middle;spacingLeft=4;spacingRight=4;overflow=hidden;points=[[0,0.5],[1,0.5]];portConstraint=eastwest;rotatable=0;whiteSpace=wrap;html=1;fontFamily=Helvetica;fontColor=#000000;" vertex="1" parent="sqdQiwpJzlFbT6sFjuYa-8">
          <mxGeometry y="510" width="340" height="30" as="geometry" />
        </mxCell>
        <mxCell id="sqdQiwpJzlFbT6sFjuYa-13" value="&lt;font&gt;&lt;b&gt;Hand&lt;/b&gt;&lt;/font&gt;" style="swimlane;fontStyle=0;childLayout=stackLayout;horizontal=1;startSize=30;horizontalStack=0;resizeParent=1;resizeParentMax=0;resizeLast=0;collapsible=1;marginBottom=0;whiteSpace=wrap;html=1;fontFamily=Helvetica;fontColor=#000000;" parent="WIyWlLk6GJQsqaUBKTNV-1" vertex="1">
          <mxGeometry x="-669.63" y="-150" width="275" height="360" as="geometry" />
        </mxCell>
        <mxCell id="sqdQiwpJzlFbT6sFjuYa-14" value="&lt;div&gt;&lt;font style=&quot;&quot;&gt;&lt;span style=&quot;font-size: 11px;&quot;&gt;- &lt;/span&gt;&lt;font style=&quot;font-size: 12px;&quot;&gt;light_grey :&lt;/font&gt;&lt;span style=&quot;font-size: 11px;&quot;&gt; &lt;font&gt;GLfloat[3];&lt;/font&gt;&lt;/span&gt;&lt;/font&gt;&lt;/div&gt;" style="text;strokeColor=none;fillColor=none;align=left;verticalAlign=middle;spacingLeft=4;spacingRight=4;overflow=hidden;points=[[0,0.5],[1,0.5]];portConstraint=eastwest;rotatable=0;whiteSpace=wrap;html=1;fontFamily=Helvetica;fontColor=#000000;" parent="sqdQiwpJzlFbT6sFjuYa-13" vertex="1">
          <mxGeometry y="30" width="275" height="30" as="geometry" />
        </mxCell>
        <mxCell id="Ybg5_mfCKvcVvenesTSS-0" value="" style="endArrow=none;html=1;rounded=0;exitX=0.001;exitY=1.03;exitDx=0;exitDy=0;exitPerimeter=0;fontFamily=Helvetica;entryX=1.001;entryY=-0.004;entryDx=0;entryDy=0;entryPerimeter=0;fontColor=#000000;" parent="sqdQiwpJzlFbT6sFjuYa-13" target="sqdQiwpJzlFbT6sFjuYa-16" edge="1">
          <mxGeometry width="50" height="50" relative="1" as="geometry">
            <mxPoint y="60" as="sourcePoint" />
            <mxPoint x="280" y="60" as="targetPoint" />
          </mxGeometry>
        </mxCell>
        <mxCell id="sqdQiwpJzlFbT6sFjuYa-16" value="+ Display() : &lt;font&gt;void;&lt;/font&gt;" style="text;strokeColor=none;fillColor=none;align=left;verticalAlign=middle;spacingLeft=4;spacingRight=4;overflow=hidden;points=[[0,0.5],[1,0.5]];portConstraint=eastwest;rotatable=0;whiteSpace=wrap;html=1;fontFamily=Helvetica;fontColor=#000000;" parent="sqdQiwpJzlFbT6sFjuYa-13" vertex="1">
          <mxGeometry y="60" width="275" height="30" as="geometry" />
        </mxCell>
        <mxCell id="sqdQiwpJzlFbT6sFjuYa-23" value="+ drawBase() : &lt;font&gt;void;&lt;/font&gt;" style="text;strokeColor=none;fillColor=none;align=left;verticalAlign=middle;spacingLeft=4;spacingRight=4;overflow=hidden;points=[[0,0.5],[1,0.5]];portConstraint=eastwest;rotatable=0;whiteSpace=wrap;html=1;fontFamily=Helvetica;fontColor=#000000;" parent="sqdQiwpJzlFbT6sFjuYa-13" vertex="1">
          <mxGeometry y="90" width="275" height="30" as="geometry" />
        </mxCell>
        <mxCell id="sqdQiwpJzlFbT6sFjuYa-24" value="+ drawThumb(is_drawn : &lt;font&gt;boolean&lt;/font&gt;) : &lt;font&gt;void;&lt;/font&gt;" style="text;strokeColor=none;fillColor=none;align=left;verticalAlign=middle;spacingLeft=4;spacingRight=4;overflow=hidden;points=[[0,0.5],[1,0.5]];portConstraint=eastwest;rotatable=0;whiteSpace=wrap;html=1;fontFamily=Helvetica;fontColor=#000000;" parent="sqdQiwpJzlFbT6sFjuYa-13" vertex="1">
          <mxGeometry y="120" width="275" height="30" as="geometry" />
        </mxCell>
        <mxCell id="sqdQiwpJzlFbT6sFjuYa-25" value="+ drawIndex(is_drawn : &lt;font&gt;boolean&lt;/font&gt;) : &lt;font&gt;void;&lt;/font&gt;" style="text;strokeColor=none;fillColor=none;align=left;verticalAlign=middle;spacingLeft=4;spacingRight=4;overflow=hidden;points=[[0,0.5],[1,0.5]];portConstraint=eastwest;rotatable=0;whiteSpace=wrap;html=1;fontFamily=Helvetica;fontColor=#000000;" parent="sqdQiwpJzlFbT6sFjuYa-13" vertex="1">
          <mxGeometry y="150" width="275" height="30" as="geometry" />
        </mxCell>
        <mxCell id="sqdQiwpJzlFbT6sFjuYa-27" value="+ drawMiddleFInger(is_drawn : &lt;font&gt;boolean&lt;/font&gt;) : &lt;font&gt;void;&lt;/font&gt;" style="text;strokeColor=none;fillColor=none;align=left;verticalAlign=middle;spacingLeft=4;spacingRight=4;overflow=hidden;points=[[0,0.5],[1,0.5]];portConstraint=eastwest;rotatable=0;whiteSpace=wrap;html=1;fontFamily=Helvetica;fontColor=#000000;" parent="sqdQiwpJzlFbT6sFjuYa-13" vertex="1">
          <mxGeometry y="180" width="275" height="30" as="geometry" />
        </mxCell>
        <mxCell id="sqdQiwpJzlFbT6sFjuYa-26" value="+ drawRingFinger(is_drawn : &lt;font&gt;boolean&lt;/font&gt;) : &lt;font&gt;void;&lt;/font&gt;" style="text;strokeColor=none;fillColor=none;align=left;verticalAlign=middle;spacingLeft=4;spacingRight=4;overflow=hidden;points=[[0,0.5],[1,0.5]];portConstraint=eastwest;rotatable=0;whiteSpace=wrap;html=1;fontFamily=Helvetica;fontColor=#000000;" parent="sqdQiwpJzlFbT6sFjuYa-13" vertex="1">
          <mxGeometry y="210" width="275" height="30" as="geometry" />
        </mxCell>
        <mxCell id="sqdQiwpJzlFbT6sFjuYa-28" value="+ drawLittleFinger(is_drawn : &lt;font&gt;boolean&lt;/font&gt;) : &lt;font&gt;void;&lt;/font&gt;" style="text;strokeColor=none;fillColor=none;align=left;verticalAlign=middle;spacingLeft=4;spacingRight=4;overflow=hidden;points=[[0,0.5],[1,0.5]];portConstraint=eastwest;rotatable=0;whiteSpace=wrap;html=1;fontFamily=Helvetica;fontColor=#000000;" parent="sqdQiwpJzlFbT6sFjuYa-13" vertex="1">
          <mxGeometry y="240" width="275" height="30" as="geometry" />
        </mxCell>
        <mxCell id="sqdQiwpJzlFbT6sFjuYa-29" value="+ cube : *&lt;font&gt;Cube;&lt;/font&gt;" style="text;strokeColor=none;fillColor=none;align=left;verticalAlign=middle;spacingLeft=4;spacingRight=4;overflow=hidden;points=[[0,0.5],[1,0.5]];portConstraint=eastwest;rotatable=0;whiteSpace=wrap;html=1;fontFamily=Helvetica;fontColor=#000000;" parent="sqdQiwpJzlFbT6sFjuYa-13" vertex="1">
          <mxGeometry y="270" width="275" height="30" as="geometry" />
        </mxCell>
        <mxCell id="Ybg5_mfCKvcVvenesTSS-2" value="+ setColor(col : GLfloat[3]) : void;" style="text;strokeColor=none;fillColor=none;align=left;verticalAlign=middle;spacingLeft=4;spacingRight=4;overflow=hidden;points=[[0,0.5],[1,0.5]];portConstraint=eastwest;rotatable=0;whiteSpace=wrap;html=1;fontFamily=Helvetica;fontColor=#000000;" parent="sqdQiwpJzlFbT6sFjuYa-13" vertex="1">
          <mxGeometry y="300" width="275" height="30" as="geometry" />
        </mxCell>
        <mxCell id="Ybg5_mfCKvcVvenesTSS-1" value="+ color : GLfloat[3];" style="text;strokeColor=none;fillColor=none;align=left;verticalAlign=middle;spacingLeft=4;spacingRight=4;overflow=hidden;points=[[0,0.5],[1,0.5]];portConstraint=eastwest;rotatable=0;whiteSpace=wrap;html=1;fontFamily=Helvetica;fontColor=#000000;" parent="sqdQiwpJzlFbT6sFjuYa-13" vertex="1">
          <mxGeometry y="330" width="275" height="30" as="geometry" />
        </mxCell>
        <mxCell id="sqdQiwpJzlFbT6sFjuYa-30" value="&lt;b&gt;Cube&lt;/b&gt;" style="swimlane;fontStyle=0;childLayout=stackLayout;horizontal=1;startSize=30;horizontalStack=0;resizeParent=1;resizeParentMax=0;resizeLast=0;collapsible=1;marginBottom=0;whiteSpace=wrap;html=1;fontFamily=Helvetica;fontColor=#000000;" parent="WIyWlLk6GJQsqaUBKTNV-1" vertex="1">
          <mxGeometry x="-729.63" y="425" width="370" height="360" as="geometry" />
        </mxCell>
        <mxCell id="sqdQiwpJzlFbT6sFjuYa-31" value="- light_grey :&amp;nbsp;&lt;font&gt;GL&lt;font style=&quot;border-color: var(--border-color);&quot;&gt;float&lt;/font&gt;[3];&lt;/font&gt;" style="text;strokeColor=none;fillColor=none;align=left;verticalAlign=middle;spacingLeft=4;spacingRight=4;overflow=hidden;points=[[0,0.5],[1,0.5]];portConstraint=eastwest;rotatable=0;whiteSpace=wrap;html=1;fontFamily=Helvetica;fontColor=#000000;" parent="sqdQiwpJzlFbT6sFjuYa-30" vertex="1">
          <mxGeometry y="30" width="370" height="30" as="geometry" />
        </mxCell>
        <mxCell id="sqdQiwpJzlFbT6sFjuYa-35" value="- grey :&amp;nbsp;&lt;font&gt;GL&lt;font style=&quot;border-color: var(--border-color);&quot;&gt;float&lt;/font&gt;[3];&lt;/font&gt;" style="text;strokeColor=none;fillColor=none;align=left;verticalAlign=middle;spacingLeft=4;spacingRight=4;overflow=hidden;points=[[0,0.5],[1,0.5]];portConstraint=eastwest;rotatable=0;whiteSpace=wrap;html=1;fontFamily=Helvetica;fontColor=#000000;" parent="sqdQiwpJzlFbT6sFjuYa-30" vertex="1">
          <mxGeometry y="60" width="370" height="30" as="geometry" />
        </mxCell>
        <mxCell id="sqdQiwpJzlFbT6sFjuYa-36" value="- dark_grey :&amp;nbsp;&lt;font&gt;GL&lt;font style=&quot;border-color: var(--border-color);&quot;&gt;float&lt;/font&gt;[3];&lt;/font&gt;" style="text;strokeColor=none;fillColor=none;align=left;verticalAlign=middle;spacingLeft=4;spacingRight=4;overflow=hidden;points=[[0,0.5],[1,0.5]];portConstraint=eastwest;rotatable=0;whiteSpace=wrap;html=1;fontFamily=Helvetica;fontColor=#000000;" parent="sqdQiwpJzlFbT6sFjuYa-30" vertex="1">
          <mxGeometry y="90" width="370" height="30" as="geometry" />
        </mxCell>
        <mxCell id="sqdQiwpJzlFbT6sFjuYa-37" value="- black :&amp;nbsp;&lt;font&gt;GL&lt;font style=&quot;border-color: var(--border-color);&quot;&gt;float&lt;/font&gt;[3];&lt;/font&gt;" style="text;strokeColor=none;fillColor=none;align=left;verticalAlign=middle;spacingLeft=4;spacingRight=4;overflow=hidden;points=[[0,0.5],[1,0.5]];portConstraint=eastwest;rotatable=0;whiteSpace=wrap;html=1;fontFamily=Helvetica;fontColor=#000000;" parent="sqdQiwpJzlFbT6sFjuYa-30" vertex="1">
          <mxGeometry y="120" width="370" height="30" as="geometry" />
        </mxCell>
        <mxCell id="sqdQiwpJzlFbT6sFjuYa-32" value="- blue :&amp;nbsp;&lt;font&gt;GL&lt;font style=&quot;border-color: var(--border-color);&quot;&gt;float&lt;/font&gt;[3];&lt;/font&gt;" style="text;strokeColor=none;fillColor=none;align=left;verticalAlign=middle;spacingLeft=4;spacingRight=4;overflow=hidden;points=[[0,0.5],[1,0.5]];portConstraint=eastwest;rotatable=0;whiteSpace=wrap;html=1;fontFamily=Helvetica;fontColor=#000000;" parent="sqdQiwpJzlFbT6sFjuYa-30" vertex="1">
          <mxGeometry y="150" width="370" height="30" as="geometry" />
        </mxCell>
        <mxCell id="Ybg5_mfCKvcVvenesTSS-20" value="- depth : float;" style="text;strokeColor=none;fillColor=none;align=left;verticalAlign=middle;spacingLeft=4;spacingRight=4;overflow=hidden;points=[[0,0.5],[1,0.5]];portConstraint=eastwest;rotatable=0;whiteSpace=wrap;html=1;fontFamily=Helvetica;fontColor=#000000;" parent="sqdQiwpJzlFbT6sFjuYa-30" vertex="1">
          <mxGeometry y="180" width="370" height="30" as="geometry" />
        </mxCell>
        <mxCell id="sqdQiwpJzlFbT6sFjuYa-33" value="+ drawCube(&lt;br&gt;&lt;span style=&quot;white-space: pre;&quot;&gt; &lt;/span&gt;bottom_left_corner_x : &lt;font&gt;float,&amp;nbsp;&lt;/font&gt;bottom_left_corner_y : &lt;font&gt;float, &lt;br&gt;&lt;/font&gt;&lt;span style=&quot;white-space: pre;&quot;&gt; &lt;/span&gt;bottom_left_corner_z : &lt;font&gt;float,&amp;nbsp;&lt;/font&gt;color : &lt;font&gt;GLfloat[]&lt;/font&gt;) : &lt;font&gt;void;&lt;/font&gt;" style="text;strokeColor=none;fillColor=none;align=left;verticalAlign=middle;spacingLeft=4;spacingRight=4;overflow=hidden;points=[[0,0.5],[1,0.5]];portConstraint=eastwest;rotatable=0;whiteSpace=wrap;html=1;fontFamily=Helvetica;fontColor=#000000;" parent="sqdQiwpJzlFbT6sFjuYa-30" vertex="1">
          <mxGeometry y="210" width="370" height="50" as="geometry" />
        </mxCell>
        <mxCell id="sqdQiwpJzlFbT6sFjuYa-34" value="" style="endArrow=none;html=1;rounded=0;exitX=-0.001;exitY=0.02;exitDx=0;exitDy=0;exitPerimeter=0;entryX=1.001;entryY=0.015;entryDx=0;entryDy=0;entryPerimeter=0;fontFamily=Helvetica;fontColor=#000000;" parent="sqdQiwpJzlFbT6sFjuYa-30" source="sqdQiwpJzlFbT6sFjuYa-33" target="sqdQiwpJzlFbT6sFjuYa-33" edge="1">
          <mxGeometry width="50" height="50" relative="1" as="geometry">
            <mxPoint x="220" y="220" as="sourcePoint" />
            <mxPoint x="270" y="170" as="targetPoint" />
          </mxGeometry>
        </mxCell>
        <mxCell id="Ybg5_mfCKvcVvenesTSS-22" value="+ drawCube(&lt;br&gt;&lt;span style=&quot;white-space: pre;&quot;&gt; &lt;/span&gt;bottom_left_corner_x : &lt;font&gt;float,&amp;nbsp;&lt;/font&gt;bottom_left_corner_y : &lt;font&gt;float, &lt;br&gt;&lt;/font&gt;&amp;nbsp;bottom_left_corner_z : &lt;font&gt;float&lt;/font&gt;) : &lt;font&gt;void;&lt;/font&gt;" style="text;strokeColor=none;fillColor=none;align=left;verticalAlign=middle;spacingLeft=4;spacingRight=4;overflow=hidden;points=[[0,0.5],[1,0.5]];portConstraint=eastwest;rotatable=0;whiteSpace=wrap;html=1;fontFamily=Helvetica;fontColor=#000000;" parent="sqdQiwpJzlFbT6sFjuYa-30" vertex="1">
          <mxGeometry y="260" width="370" height="50" as="geometry" />
        </mxCell>
        <mxCell id="Ybg5_mfCKvcVvenesTSS-23" value="+ drawCubeTextureLogo(&lt;br&gt;&lt;span style=&quot;white-space: pre;&quot;&gt; &lt;/span&gt;bottom_left_corner_x : &lt;font&gt;float,&amp;nbsp;&lt;/font&gt;bottom_left_corner_y : &lt;font&gt;float, &lt;br&gt;&lt;/font&gt;&lt;span style=&quot;white-space: pre;&quot;&gt; &lt;/span&gt;bottom_left_corner_z : &lt;font&gt;float, texture : GLuint&lt;/font&gt;) : &lt;font&gt;void;&lt;/font&gt;" style="text;strokeColor=none;fillColor=none;align=left;verticalAlign=middle;spacingLeft=4;spacingRight=4;overflow=hidden;points=[[0,0.5],[1,0.5]];portConstraint=eastwest;rotatable=0;whiteSpace=wrap;html=1;fontFamily=Helvetica;fontColor=#000000;" parent="sqdQiwpJzlFbT6sFjuYa-30" vertex="1">
          <mxGeometry y="310" width="370" height="50" as="geometry" />
        </mxCell>
        <mxCell id="sqdQiwpJzlFbT6sFjuYa-44" value="" style="endArrow=diamondThin;endFill=0;endSize=24;html=1;rounded=0;exitX=0.5;exitY=0;exitDx=0;exitDy=0;fontFamily=Helvetica;entryX=0.454;entryY=1.03;entryDx=0;entryDy=0;entryPerimeter=0;fontColor=#000000;" parent="WIyWlLk6GJQsqaUBKTNV-1" source="sqdQiwpJzlFbT6sFjuYa-30" target="Ybg5_mfCKvcVvenesTSS-1" edge="1">
          <mxGeometry width="160" relative="1" as="geometry">
            <mxPoint x="-709.63" y="240" as="sourcePoint" />
            <mxPoint x="-544.63" y="230" as="targetPoint" />
            <Array as="points" />
          </mxGeometry>
        </mxCell>
        <mxCell id="sqdQiwpJzlFbT6sFjuYa-45" value="1" style="text;html=1;align=center;verticalAlign=middle;resizable=0;points=[];autosize=1;strokeColor=none;fillColor=none;fontFamily=Helvetica;fontColor=#000000;" parent="WIyWlLk6GJQsqaUBKTNV-1" vertex="1">
          <mxGeometry x="-539.63" y="210" width="30" height="30" as="geometry" />
        </mxCell>
        <mxCell id="sqdQiwpJzlFbT6sFjuYa-47" value="Scene&lt;br&gt;" style="swimlane;fontStyle=1;align=center;verticalAlign=top;childLayout=stackLayout;horizontal=1;startSize=26;horizontalStack=0;resizeParent=1;resizeParentMax=0;resizeLast=0;collapsible=1;marginBottom=0;whiteSpace=wrap;html=1;fontFamily=Helvetica;fontColor=#000000;" parent="WIyWlLk6GJQsqaUBKTNV-1" vertex="1">
          <mxGeometry x="-140" y="-150" width="240" height="484" as="geometry" />
        </mxCell>
        <mxCell id="sqdQiwpJzlFbT6sFjuYa-48" value="- ui : &lt;font&gt;*Ui::Scene;&lt;/font&gt;" style="text;strokeColor=none;fillColor=none;align=left;verticalAlign=top;spacingLeft=4;spacingRight=4;overflow=hidden;rotatable=0;points=[[0,0.5],[1,0.5]];portConstraint=eastwest;whiteSpace=wrap;html=1;fontFamily=Helvetica;fontColor=#000000;" parent="sqdQiwpJzlFbT6sFjuYa-47" vertex="1">
          <mxGeometry y="26" width="240" height="26" as="geometry" />
        </mxCell>
        <mxCell id="sqdQiwpJzlFbT6sFjuYa-51" value="- hand : &lt;font&gt;*Hand;&lt;/font&gt;" style="text;strokeColor=none;fillColor=none;align=left;verticalAlign=top;spacingLeft=4;spacingRight=4;overflow=hidden;rotatable=0;points=[[0,0.5],[1,0.5]];portConstraint=eastwest;whiteSpace=wrap;html=1;fontFamily=Helvetica;fontColor=#000000;" parent="sqdQiwpJzlFbT6sFjuYa-47" vertex="1">
          <mxGeometry y="52" width="240" height="26" as="geometry" />
        </mxCell>
        <mxCell id="Ybg5_mfCKvcVvenesTSS-6" value="- wall : *Wall;" style="text;strokeColor=none;fillColor=none;align=left;verticalAlign=top;spacingLeft=4;spacingRight=4;overflow=hidden;rotatable=0;points=[[0,0.5],[1,0.5]];portConstraint=eastwest;whiteSpace=wrap;html=1;fontFamily=Helvetica;fontColor=#000000;" parent="sqdQiwpJzlFbT6sFjuYa-47" vertex="1">
          <mxGeometry y="78" width="240" height="26" as="geometry" />
        </mxCell>
        <mxCell id="Ybg5_mfCKvcVvenesTSS-7" value="- webcam : *Webcam;" style="text;strokeColor=none;fillColor=none;align=left;verticalAlign=top;spacingLeft=4;spacingRight=4;overflow=hidden;rotatable=0;points=[[0,0.5],[1,0.5]];portConstraint=eastwest;whiteSpace=wrap;html=1;fontFamily=Helvetica;fontColor=#000000;" parent="sqdQiwpJzlFbT6sFjuYa-47" vertex="1">
          <mxGeometry y="104" width="240" height="26" as="geometry" />
        </mxCell>
        <mxCell id="Ybg5_mfCKvcVvenesTSS-8" value="- cube : *Cube;" style="text;strokeColor=none;fillColor=none;align=left;verticalAlign=top;spacingLeft=4;spacingRight=4;overflow=hidden;rotatable=0;points=[[0,0.5],[1,0.5]];portConstraint=eastwest;whiteSpace=wrap;html=1;fontFamily=Helvetica;fontColor=#000000;" parent="sqdQiwpJzlFbT6sFjuYa-47" vertex="1">
          <mxGeometry y="130" width="240" height="26" as="geometry" />
        </mxCell>
        <mxCell id="Ybg5_mfCKvcVvenesTSS-9" value="- wall_finger : boolean[5]:" style="text;strokeColor=none;fillColor=none;align=left;verticalAlign=top;spacingLeft=4;spacingRight=4;overflow=hidden;rotatable=0;points=[[0,0.5],[1,0.5]];portConstraint=eastwest;whiteSpace=wrap;html=1;fontFamily=Helvetica;fontColor=#000000;" parent="sqdQiwpJzlFbT6sFjuYa-47" vertex="1">
          <mxGeometry y="156" width="240" height="26" as="geometry" />
        </mxCell>
        <mxCell id="Ybg5_mfCKvcVvenesTSS-10" value="- temp : integer;" style="text;strokeColor=none;fillColor=none;align=left;verticalAlign=top;spacingLeft=4;spacingRight=4;overflow=hidden;rotatable=0;points=[[0,0.5],[1,0.5]];portConstraint=eastwest;whiteSpace=wrap;html=1;fontFamily=Helvetica;fontColor=#000000;" parent="sqdQiwpJzlFbT6sFjuYa-47" vertex="1">
          <mxGeometry y="182" width="240" height="26" as="geometry" />
        </mxCell>
        <mxCell id="Ybg5_mfCKvcVvenesTSS-11" value="- one_by_one : boolean;" style="text;strokeColor=none;fillColor=none;align=left;verticalAlign=top;spacingLeft=4;spacingRight=4;overflow=hidden;rotatable=0;points=[[0,0.5],[1,0.5]];portConstraint=eastwest;whiteSpace=wrap;html=1;fontFamily=Helvetica;fontColor=#000000;" parent="sqdQiwpJzlFbT6sFjuYa-47" vertex="1">
          <mxGeometry y="208" width="240" height="26" as="geometry" />
        </mxCell>
        <mxCell id="Ybg5_mfCKvcVvenesTSS-13" value="- has_been_analyzed : boolean;" style="text;strokeColor=none;fillColor=none;align=left;verticalAlign=top;spacingLeft=4;spacingRight=4;overflow=hidden;rotatable=0;points=[[0,0.5],[1,0.5]];portConstraint=eastwest;whiteSpace=wrap;html=1;fontFamily=Helvetica;fontColor=#000000;" parent="sqdQiwpJzlFbT6sFjuYa-47" vertex="1">
          <mxGeometry y="234" width="240" height="26" as="geometry" />
        </mxCell>
        <mxCell id="Ybg5_mfCKvcVvenesTSS-14" value="- compteur : float;" style="text;strokeColor=none;fillColor=none;align=left;verticalAlign=top;spacingLeft=4;spacingRight=4;overflow=hidden;rotatable=0;points=[[0,0.5],[1,0.5]];portConstraint=eastwest;whiteSpace=wrap;html=1;fontFamily=Helvetica;fontColor=#000000;" parent="sqdQiwpJzlFbT6sFjuYa-47" vertex="1">
          <mxGeometry y="260" width="240" height="26" as="geometry" />
        </mxCell>
        <mxCell id="Ybg5_mfCKvcVvenesTSS-15" value="- mur : QImage;" style="text;strokeColor=none;fillColor=none;align=left;verticalAlign=top;spacingLeft=4;spacingRight=4;overflow=hidden;rotatable=0;points=[[0,0.5],[1,0.5]];portConstraint=eastwest;whiteSpace=wrap;html=1;fontFamily=Helvetica;fontColor=#000000;" parent="sqdQiwpJzlFbT6sFjuYa-47" vertex="1">
          <mxGeometry y="286" width="240" height="26" as="geometry" />
        </mxCell>
        <mxCell id="Ybg5_mfCKvcVvenesTSS-16" value="- mur_texture : GLuint;" style="text;strokeColor=none;fillColor=none;align=left;verticalAlign=top;spacingLeft=4;spacingRight=4;overflow=hidden;rotatable=0;points=[[0,0.5],[1,0.5]];portConstraint=eastwest;whiteSpace=wrap;html=1;fontFamily=Helvetica;fontColor=#000000;" parent="sqdQiwpJzlFbT6sFjuYa-47" vertex="1">
          <mxGeometry y="312" width="240" height="26" as="geometry" />
        </mxCell>
        <mxCell id="sqdQiwpJzlFbT6sFjuYa-49" value="" style="line;strokeWidth=1;fillColor=none;align=left;verticalAlign=middle;spacingTop=-1;spacingLeft=3;spacingRight=3;rotatable=0;labelPosition=right;points=[];portConstraint=eastwest;strokeColor=inherit;fontFamily=Helvetica;fontColor=#000000;" parent="sqdQiwpJzlFbT6sFjuYa-47" vertex="1">
          <mxGeometry y="338" width="240" height="8" as="geometry" />
        </mxCell>
        <mxCell id="sqdQiwpJzlFbT6sFjuYa-50" value="# initializeGL() : &lt;font&gt;void;&lt;/font&gt;" style="text;strokeColor=none;fillColor=none;align=left;verticalAlign=top;spacingLeft=4;spacingRight=4;overflow=hidden;rotatable=0;points=[[0,0.5],[1,0.5]];portConstraint=eastwest;whiteSpace=wrap;html=1;fontFamily=Helvetica;fontColor=#000000;" parent="sqdQiwpJzlFbT6sFjuYa-47" vertex="1">
          <mxGeometry y="346" width="240" height="26" as="geometry" />
        </mxCell>
        <mxCell id="sqdQiwpJzlFbT6sFjuYa-53" value="# paintGL() : &lt;font&gt;void;&lt;/font&gt;" style="text;strokeColor=none;fillColor=none;align=left;verticalAlign=top;spacingLeft=4;spacingRight=4;overflow=hidden;rotatable=0;points=[[0,0.5],[1,0.5]];portConstraint=eastwest;whiteSpace=wrap;html=1;fontFamily=Helvetica;fontColor=#000000;" parent="sqdQiwpJzlFbT6sFjuYa-47" vertex="1">
          <mxGeometry y="372" width="240" height="26" as="geometry" />
        </mxCell>
        <mxCell id="Ybg5_mfCKvcVvenesTSS-18" value="" style="line;strokeWidth=1;fillColor=none;align=left;verticalAlign=middle;spacingTop=-1;spacingLeft=3;spacingRight=3;rotatable=0;labelPosition=right;points=[];portConstraint=eastwest;strokeColor=inherit;fontFamily=Helvetica;fontColor=#000000;" parent="sqdQiwpJzlFbT6sFjuYa-47" vertex="1">
          <mxGeometry y="398" width="240" height="8" as="geometry" />
        </mxCell>
        <mxCell id="Ybg5_mfCKvcVvenesTSS-5" value="+ collisionOccured() : void;" style="text;strokeColor=none;fillColor=none;align=left;verticalAlign=top;spacingLeft=4;spacingRight=4;overflow=hidden;rotatable=0;points=[[0,0.5],[1,0.5]];portConstraint=eastwest;whiteSpace=wrap;html=1;fontFamily=Helvetica;fontColor=#000000;" parent="sqdQiwpJzlFbT6sFjuYa-47" vertex="1">
          <mxGeometry y="406" width="240" height="26" as="geometry" />
        </mxCell>
        <mxCell id="Ybg5_mfCKvcVvenesTSS-17" value="+ wallPassed() : void;" style="text;strokeColor=none;fillColor=none;align=left;verticalAlign=top;spacingLeft=4;spacingRight=4;overflow=hidden;rotatable=0;points=[[0,0.5],[1,0.5]];portConstraint=eastwest;whiteSpace=wrap;html=1;fontFamily=Helvetica;fontColor=#000000;" parent="sqdQiwpJzlFbT6sFjuYa-47" vertex="1">
          <mxGeometry y="432" width="240" height="26" as="geometry" />
        </mxCell>
        <mxCell id="Ybg5_mfCKvcVvenesTSS-19" value="+ analyze() : void;" style="text;strokeColor=none;fillColor=none;align=left;verticalAlign=top;spacingLeft=4;spacingRight=4;overflow=hidden;rotatable=0;points=[[0,0.5],[1,0.5]];portConstraint=eastwest;whiteSpace=wrap;html=1;fontFamily=Helvetica;fontColor=#000000;" parent="sqdQiwpJzlFbT6sFjuYa-47" vertex="1">
          <mxGeometry y="458" width="240" height="26" as="geometry" />
        </mxCell>
        <mxCell id="sqdQiwpJzlFbT6sFjuYa-54" value="" style="endArrow=diamondThin;endFill=1;endSize=24;html=1;rounded=0;exitX=1;exitY=0.694;exitDx=0;exitDy=0;exitPerimeter=0;fontColor=#000000;" parent="WIyWlLk6GJQsqaUBKTNV-1" source="sqdQiwpJzlFbT6sFjuYa-14" edge="1">
          <mxGeometry width="160" relative="1" as="geometry">
            <mxPoint x="-300" y="-100" as="sourcePoint" />
            <mxPoint x="-140" y="-100" as="targetPoint" />
          </mxGeometry>
        </mxCell>
        <mxCell id="sqdQiwpJzlFbT6sFjuYa-55" value="1" style="text;html=1;align=center;verticalAlign=middle;resizable=0;points=[];autosize=1;strokeColor=none;fillColor=none;fontColor=#000000;" parent="WIyWlLk6GJQsqaUBKTNV-1" vertex="1">
          <mxGeometry x="-175" y="-132" width="30" height="30" as="geometry" />
        </mxCell>
        <mxCell id="sqdQiwpJzlFbT6sFjuYa-56" value="&lt;b&gt;QOpenGLWidget&lt;/b&gt;" style="html=1;whiteSpace=wrap;fontColor=#000000;" parent="WIyWlLk6GJQsqaUBKTNV-1" vertex="1">
          <mxGeometry x="-75" y="-250" width="110" height="50" as="geometry" />
        </mxCell>
        <mxCell id="sqdQiwpJzlFbT6sFjuYa-57" value="Extends" style="endArrow=block;endSize=16;endFill=0;html=1;rounded=0;exitX=0.5;exitY=1;exitDx=0;exitDy=0;entryX=0.5;entryY=0;entryDx=0;entryDy=0;fontColor=#000000;" parent="WIyWlLk6GJQsqaUBKTNV-1" source="sqdQiwpJzlFbT6sFjuYa-56" target="sqdQiwpJzlFbT6sFjuYa-47" edge="1">
          <mxGeometry width="160" relative="1" as="geometry">
            <mxPoint x="-350" y="40" as="sourcePoint" />
            <mxPoint x="-190" y="40" as="targetPoint" />
          </mxGeometry>
        </mxCell>
        <mxCell id="A-M6z1SIhGvRbmHf0a0M-25" value="1" style="text;html=1;align=center;verticalAlign=middle;resizable=0;points=[];autosize=1;strokeColor=none;fillColor=none;fontFamily=Helvetica;fontColor=#000000;" vertex="1" parent="WIyWlLk6GJQsqaUBKTNV-1">
          <mxGeometry x="-240" y="450" width="30" height="30" as="geometry" />
        </mxCell>
        <mxCell id="A-M6z1SIhGvRbmHf0a0M-27" value="" style="endArrow=diamondThin;endFill=0;endSize=24;html=1;rounded=0;exitX=1;exitY=0.5;exitDx=0;exitDy=0;fontFamily=Helvetica;entryX=0;entryY=0.5;entryDx=0;entryDy=0;fontColor=#000000;" edge="1" parent="WIyWlLk6GJQsqaUBKTNV-1" source="sqdQiwpJzlFbT6sFjuYa-35" target="A-M6z1SIhGvRbmHf0a0M-7">
          <mxGeometry width="160" relative="1" as="geometry">
            <mxPoint x="-250" y="712" as="sourcePoint" />
            <mxPoint x="-250" y="498" as="targetPoint" />
            <Array as="points" />
          </mxGeometry>
        </mxCell>
        <mxCell id="A-M6z1SIhGvRbmHf0a0M-28" value="" style="endArrow=diamondThin;endFill=1;endSize=24;html=1;rounded=0;exitX=0.5;exitY=0;exitDx=0;exitDy=0;fontColor=#000000;entryX=0.499;entryY=0.999;entryDx=0;entryDy=0;entryPerimeter=0;" edge="1" parent="WIyWlLk6GJQsqaUBKTNV-1" source="sqdQiwpJzlFbT6sFjuYa-8" target="Ybg5_mfCKvcVvenesTSS-19">
          <mxGeometry width="160" relative="1" as="geometry">
            <mxPoint x="-260" y="361" as="sourcePoint" />
            <mxPoint x="-5" y="360" as="targetPoint" />
          </mxGeometry>
        </mxCell>
        <mxCell id="A-M6z1SIhGvRbmHf0a0M-43" value="- blue :&amp;nbsp;&lt;font&gt;GL&lt;font style=&quot;border-color: var(--border-color);&quot;&gt;float&lt;/font&gt;[3];&lt;/font&gt;" style="text;strokeColor=none;fillColor=none;align=left;verticalAlign=middle;spacingLeft=4;spacingRight=4;overflow=hidden;points=[[0,0.5],[1,0.5]];portConstraint=eastwest;rotatable=0;whiteSpace=wrap;html=1;fontFamily=Helvetica;fontColor=#000000;" vertex="1" parent="WIyWlLk6GJQsqaUBKTNV-1">
          <mxGeometry x="-719.63" y="585" width="370" height="30" as="geometry" />
        </mxCell>
        <mxCell id="A-M6z1SIhGvRbmHf0a0M-48" value="&lt;b&gt;Camera&lt;/b&gt;" style="swimlane;fontStyle=0;childLayout=stackLayout;horizontal=1;startSize=30;horizontalStack=0;resizeParent=1;resizeParentMax=0;resizeLast=0;collapsible=1;marginBottom=0;whiteSpace=wrap;html=1;fontFamily=Helvetica;fontColor=#000000;" vertex="1" parent="WIyWlLk6GJQsqaUBKTNV-1">
          <mxGeometry x="600" y="-60" width="340" height="240" as="geometry" />
        </mxCell>
        <mxCell id="A-M6z1SIhGvRbmHf0a0M-49" value="- ui : * Ui::Camera;" style="text;strokeColor=none;fillColor=none;align=left;verticalAlign=middle;spacingLeft=4;spacingRight=4;overflow=hidden;points=[[0,0.5],[1,0.5]];portConstraint=eastwest;rotatable=0;whiteSpace=wrap;html=1;fontFamily=Helvetica;fontColor=#000000;" vertex="1" parent="A-M6z1SIhGvRbmHf0a0M-48">
          <mxGeometry y="30" width="340" height="30" as="geometry" />
        </mxCell>
        <mxCell id="A-M6z1SIhGvRbmHf0a0M-54" value="- analyse : bool;" style="text;strokeColor=none;fillColor=none;align=left;verticalAlign=middle;spacingLeft=4;spacingRight=4;overflow=hidden;points=[[0,0.5],[1,0.5]];portConstraint=eastwest;rotatable=0;whiteSpace=wrap;html=1;fontFamily=Helvetica;fontColor=#000000;" vertex="1" parent="A-M6z1SIhGvRbmHf0a0M-48">
          <mxGeometry y="60" width="340" height="30" as="geometry" />
        </mxCell>
        <mxCell id="A-M6z1SIhGvRbmHf0a0M-55" value="-&amp;nbsp;nb_threads : unsigned int;" style="text;strokeColor=none;fillColor=none;align=left;verticalAlign=middle;spacingLeft=4;spacingRight=4;overflow=hidden;points=[[0,0.5],[1,0.5]];portConstraint=eastwest;rotatable=0;whiteSpace=wrap;html=1;fontFamily=Helvetica;fontColor=#000000;" vertex="1" parent="A-M6z1SIhGvRbmHf0a0M-48">
          <mxGeometry y="90" width="340" height="30" as="geometry" />
        </mxCell>
        <mxCell id="A-M6z1SIhGvRbmHf0a0M-50" value="- webcam : * Webcam&lt;font&gt;;&lt;/font&gt;" style="text;strokeColor=none;fillColor=none;align=left;verticalAlign=middle;spacingLeft=4;spacingRight=4;overflow=hidden;points=[[0,0.5],[1,0.5]];portConstraint=eastwest;rotatable=0;whiteSpace=wrap;html=1;fontFamily=Helvetica;fontColor=#000000;" vertex="1" parent="A-M6z1SIhGvRbmHf0a0M-48">
          <mxGeometry y="120" width="340" height="30" as="geometry" />
        </mxCell>
        <mxCell id="A-M6z1SIhGvRbmHf0a0M-46" value="+ displayCamera() : void;" style="text;strokeColor=none;fillColor=none;align=left;verticalAlign=middle;spacingLeft=4;spacingRight=4;overflow=hidden;points=[[0,0.5],[1,0.5]];portConstraint=eastwest;rotatable=0;whiteSpace=wrap;html=1;fontFamily=Helvetica;fontColor=#000000;" vertex="1" parent="A-M6z1SIhGvRbmHf0a0M-48">
          <mxGeometry y="150" width="340" height="30" as="geometry" />
        </mxCell>
        <mxCell id="A-M6z1SIhGvRbmHf0a0M-47" value="+ getWebcam() : *Webcam;" style="text;strokeColor=none;fillColor=none;align=left;verticalAlign=middle;spacingLeft=4;spacingRight=4;overflow=hidden;points=[[0,0.5],[1,0.5]];portConstraint=eastwest;rotatable=0;whiteSpace=wrap;html=1;fontFamily=Helvetica;fontColor=#000000;" vertex="1" parent="A-M6z1SIhGvRbmHf0a0M-48">
          <mxGeometry y="180" width="340" height="30" as="geometry" />
        </mxCell>
        <mxCell id="A-M6z1SIhGvRbmHf0a0M-56" value="" style="endArrow=none;html=1;rounded=0;fontFamily=Helvetica;fontColor=#000000;exitX=0.001;exitY=0;exitDx=0;exitDy=0;exitPerimeter=0;entryX=1;entryY=0;entryDx=0;entryDy=0;entryPerimeter=0;" edge="1" parent="A-M6z1SIhGvRbmHf0a0M-48">
          <mxGeometry width="50" height="50" relative="1" as="geometry">
            <mxPoint x="0.33999999999991815" y="150" as="sourcePoint" />
            <mxPoint x="339.9999999999999" y="150" as="targetPoint" />
          </mxGeometry>
        </mxCell>
        <mxCell id="A-M6z1SIhGvRbmHf0a0M-69" value="+&amp;nbsp;Camera(parent: *QWidget) : explicit" style="text;strokeColor=none;fillColor=none;align=left;verticalAlign=middle;spacingLeft=4;spacingRight=4;overflow=hidden;points=[[0,0.5],[1,0.5]];portConstraint=eastwest;rotatable=0;whiteSpace=wrap;html=1;fontFamily=Helvetica;fontColor=#000000;" vertex="1" parent="A-M6z1SIhGvRbmHf0a0M-48">
          <mxGeometry y="210" width="340" height="30" as="geometry" />
        </mxCell>
        <mxCell id="A-M6z1SIhGvRbmHf0a0M-70" value="&lt;b&gt;Webcam&lt;/b&gt;" style="swimlane;fontStyle=0;childLayout=stackLayout;horizontal=1;startSize=30;horizontalStack=0;resizeParent=1;resizeParentMax=0;resizeLast=0;collapsible=1;marginBottom=0;whiteSpace=wrap;html=1;fontFamily=Helvetica;fontColor=#000000;" vertex="1" parent="WIyWlLk6GJQsqaUBKTNV-1">
          <mxGeometry x="180" y="-80" width="340" height="300" as="geometry" />
        </mxCell>
        <mxCell id="A-M6z1SIhGvRbmHf0a0M-71" value="-&amp;nbsp;window : * cv::VideoCapture;" style="text;strokeColor=none;fillColor=none;align=left;verticalAlign=middle;spacingLeft=4;spacingRight=4;overflow=hidden;points=[[0,0.5],[1,0.5]];portConstraint=eastwest;rotatable=0;whiteSpace=wrap;html=1;fontFamily=Helvetica;fontColor=#000000;" vertex="1" parent="A-M6z1SIhGvRbmHf0a0M-70">
          <mxGeometry y="30" width="340" height="30" as="geometry" />
        </mxCell>
        <mxCell id="A-M6z1SIhGvRbmHf0a0M-72" value="- frame : cv::Mat;" style="text;strokeColor=none;fillColor=none;align=left;verticalAlign=middle;spacingLeft=4;spacingRight=4;overflow=hidden;points=[[0,0.5],[1,0.5]];portConstraint=eastwest;rotatable=0;whiteSpace=wrap;html=1;fontFamily=Helvetica;fontColor=#000000;" vertex="1" parent="A-M6z1SIhGvRbmHf0a0M-70">
          <mxGeometry y="60" width="340" height="30" as="geometry" />
        </mxCell>
        <mxCell id="A-M6z1SIhGvRbmHf0a0M-73" value="- result : * Mat;" style="text;strokeColor=none;fillColor=none;align=left;verticalAlign=middle;spacingLeft=4;spacingRight=4;overflow=hidden;points=[[0,0.5],[1,0.5]];portConstraint=eastwest;rotatable=0;whiteSpace=wrap;html=1;fontFamily=Helvetica;fontColor=#000000;" vertex="1" parent="A-M6z1SIhGvRbmHf0a0M-70">
          <mxGeometry y="90" width="340" height="30" as="geometry" />
        </mxCell>
        <mxCell id="A-M6z1SIhGvRbmHf0a0M-74" value="- img : * QImage;" style="text;strokeColor=none;fillColor=none;align=left;verticalAlign=middle;spacingLeft=4;spacingRight=4;overflow=hidden;points=[[0,0.5],[1,0.5]];portConstraint=eastwest;rotatable=0;whiteSpace=wrap;html=1;fontFamily=Helvetica;fontColor=#000000;" vertex="1" parent="A-M6z1SIhGvRbmHf0a0M-70">
          <mxGeometry y="120" width="340" height="30" as="geometry" />
        </mxCell>
        <mxCell id="A-M6z1SIhGvRbmHf0a0M-75" value="- finger_length : float[5];" style="text;strokeColor=none;fillColor=none;align=left;verticalAlign=middle;spacingLeft=4;spacingRight=4;overflow=hidden;points=[[0,0.5],[1,0.5]];portConstraint=eastwest;rotatable=0;whiteSpace=wrap;html=1;fontFamily=Helvetica;fontColor=#000000;" vertex="1" parent="A-M6z1SIhGvRbmHf0a0M-70">
          <mxGeometry y="150" width="340" height="30" as="geometry" />
        </mxCell>
        <mxCell id="A-M6z1SIhGvRbmHf0a0M-80" value="+ run() : QImage;" style="text;strokeColor=none;fillColor=none;align=left;verticalAlign=middle;spacingLeft=4;spacingRight=4;overflow=hidden;points=[[0,0.5],[1,0.5]];portConstraint=eastwest;rotatable=0;whiteSpace=wrap;html=1;fontFamily=Helvetica;fontColor=#000000;" vertex="1" parent="A-M6z1SIhGvRbmHf0a0M-70">
          <mxGeometry y="180" width="340" height="30" as="geometry" />
        </mxCell>
        <mxCell id="A-M6z1SIhGvRbmHf0a0M-76" value="+ analyze_hand() : void;" style="text;strokeColor=none;fillColor=none;align=left;verticalAlign=middle;spacingLeft=4;spacingRight=4;overflow=hidden;points=[[0,0.5],[1,0.5]];portConstraint=eastwest;rotatable=0;whiteSpace=wrap;html=1;fontFamily=Helvetica;fontColor=#000000;" vertex="1" parent="A-M6z1SIhGvRbmHf0a0M-70">
          <mxGeometry y="210" width="340" height="30" as="geometry" />
        </mxCell>
        <mxCell id="A-M6z1SIhGvRbmHf0a0M-78" value="+ getInstance() : void;" style="text;strokeColor=none;fillColor=none;align=left;verticalAlign=middle;spacingLeft=4;spacingRight=4;overflow=hidden;points=[[0,0.5],[1,0.5]];portConstraint=eastwest;rotatable=0;whiteSpace=wrap;html=1;fontFamily=Helvetica;fontColor=#000000;" vertex="1" parent="A-M6z1SIhGvRbmHf0a0M-70">
          <mxGeometry y="240" width="340" height="30" as="geometry" />
        </mxCell>
        <mxCell id="A-M6z1SIhGvRbmHf0a0M-79" value="+ finger : bool[5];" style="text;strokeColor=none;fillColor=none;align=left;verticalAlign=middle;spacingLeft=4;spacingRight=4;overflow=hidden;points=[[0,0.5],[1,0.5]];portConstraint=eastwest;rotatable=0;whiteSpace=wrap;html=1;fontFamily=Helvetica;fontColor=#000000;" vertex="1" parent="A-M6z1SIhGvRbmHf0a0M-70">
          <mxGeometry y="270" width="340" height="30" as="geometry" />
        </mxCell>
        <mxCell id="A-M6z1SIhGvRbmHf0a0M-77" value="" style="endArrow=none;html=1;rounded=0;fontFamily=Helvetica;fontColor=#000000;exitX=0.002;exitY=-0.005;exitDx=0;exitDy=0;exitPerimeter=0;entryX=1.001;entryY=-0.005;entryDx=0;entryDy=0;entryPerimeter=0;" edge="1" parent="A-M6z1SIhGvRbmHf0a0M-70" source="A-M6z1SIhGvRbmHf0a0M-80" target="A-M6z1SIhGvRbmHf0a0M-80">
          <mxGeometry width="50" height="50" relative="1" as="geometry">
            <mxPoint x="-40" y="210" as="sourcePoint" />
            <mxPoint x="360" y="230" as="targetPoint" />
          </mxGeometry>
        </mxCell>
        <mxCell id="A-M6z1SIhGvRbmHf0a0M-92" value="&lt;b&gt;MainWindow&lt;/b&gt;" style="swimlane;fontStyle=0;childLayout=stackLayout;horizontal=1;startSize=30;horizontalStack=0;resizeParent=1;resizeParentMax=0;resizeLast=0;collapsible=1;marginBottom=0;whiteSpace=wrap;html=1;fontFamily=Helvetica;fontColor=#000000;" vertex="1" parent="WIyWlLk6GJQsqaUBKTNV-1">
          <mxGeometry x="110" y="-580" width="340" height="360" as="geometry" />
        </mxCell>
        <mxCell id="A-M6z1SIhGvRbmHf0a0M-93" value="- ui : * Ui::MainWindow;" style="text;strokeColor=none;fillColor=none;align=left;verticalAlign=middle;spacingLeft=4;spacingRight=4;overflow=hidden;points=[[0,0.5],[1,0.5]];portConstraint=eastwest;rotatable=0;whiteSpace=wrap;html=1;fontFamily=Helvetica;fontColor=#000000;" vertex="1" parent="A-M6z1SIhGvRbmHf0a0M-92">
          <mxGeometry y="30" width="340" height="30" as="geometry" />
        </mxCell>
        <mxCell id="A-M6z1SIhGvRbmHf0a0M-94" value="- timer : * QTImer;" style="text;strokeColor=none;fillColor=none;align=left;verticalAlign=middle;spacingLeft=4;spacingRight=4;overflow=hidden;points=[[0,0.5],[1,0.5]];portConstraint=eastwest;rotatable=0;whiteSpace=wrap;html=1;fontFamily=Helvetica;fontColor=#000000;" vertex="1" parent="A-M6z1SIhGvRbmHf0a0M-92">
          <mxGeometry y="60" width="340" height="30" as="geometry" />
        </mxCell>
        <mxCell id="A-M6z1SIhGvRbmHf0a0M-95" value="-&amp;nbsp;future_scene : &amp;lt;void&amp;gt; QFuture;" style="text;strokeColor=none;fillColor=none;align=left;verticalAlign=middle;spacingLeft=4;spacingRight=4;overflow=hidden;points=[[0,0.5],[1,0.5]];portConstraint=eastwest;rotatable=0;whiteSpace=wrap;html=1;fontFamily=Helvetica;fontColor=#000000;" vertex="1" parent="A-M6z1SIhGvRbmHf0a0M-92">
          <mxGeometry y="90" width="340" height="30" as="geometry" />
        </mxCell>
        <mxCell id="A-M6z1SIhGvRbmHf0a0M-101" value="-&amp;nbsp;future_camera : &amp;lt;void&amp;gt; QFuture;" style="text;strokeColor=none;fillColor=none;align=left;verticalAlign=middle;spacingLeft=4;spacingRight=4;overflow=hidden;points=[[0,0.5],[1,0.5]];portConstraint=eastwest;rotatable=0;whiteSpace=wrap;html=1;fontFamily=Helvetica;fontColor=#000000;" vertex="1" parent="A-M6z1SIhGvRbmHf0a0M-92">
          <mxGeometry y="120" width="340" height="30" as="geometry" />
        </mxCell>
        <mxCell id="A-M6z1SIhGvRbmHf0a0M-96" value="- score : int;" style="text;strokeColor=none;fillColor=none;align=left;verticalAlign=middle;spacingLeft=4;spacingRight=4;overflow=hidden;points=[[0,0.5],[1,0.5]];portConstraint=eastwest;rotatable=0;whiteSpace=wrap;html=1;fontFamily=Helvetica;fontColor=#000000;" vertex="1" parent="A-M6z1SIhGvRbmHf0a0M-92">
          <mxGeometry y="150" width="340" height="30" as="geometry" />
        </mxCell>
        <mxCell id="A-M6z1SIhGvRbmHf0a0M-97" value="+ update_scene() : void;" style="text;strokeColor=none;fillColor=none;align=left;verticalAlign=middle;spacingLeft=4;spacingRight=4;overflow=hidden;points=[[0,0.5],[1,0.5]];portConstraint=eastwest;rotatable=0;whiteSpace=wrap;html=1;fontFamily=Helvetica;fontColor=#000000;" vertex="1" parent="A-M6z1SIhGvRbmHf0a0M-92">
          <mxGeometry y="180" width="340" height="30" as="geometry" />
        </mxCell>
        <mxCell id="A-M6z1SIhGvRbmHf0a0M-98" value="+&amp;nbsp;update_camera() : void;" style="text;strokeColor=none;fillColor=none;align=left;verticalAlign=middle;spacingLeft=4;spacingRight=4;overflow=hidden;points=[[0,0.5],[1,0.5]];portConstraint=eastwest;rotatable=0;whiteSpace=wrap;html=1;fontFamily=Helvetica;fontColor=#000000;" vertex="1" parent="A-M6z1SIhGvRbmHf0a0M-92">
          <mxGeometry y="210" width="340" height="30" as="geometry" />
        </mxCell>
        <mxCell id="A-M6z1SIhGvRbmHf0a0M-99" value="" style="endArrow=none;html=1;rounded=0;fontFamily=Helvetica;fontColor=#000000;exitX=0.001;exitY=-0.003;exitDx=0;exitDy=0;exitPerimeter=0;entryX=0.997;entryY=-0.003;entryDx=0;entryDy=0;entryPerimeter=0;" edge="1" parent="A-M6z1SIhGvRbmHf0a0M-92" source="A-M6z1SIhGvRbmHf0a0M-97" target="A-M6z1SIhGvRbmHf0a0M-97">
          <mxGeometry width="50" height="50" relative="1" as="geometry">
            <mxPoint x="-40" y="170" as="sourcePoint" />
            <mxPoint x="390" y="200" as="targetPoint" />
          </mxGeometry>
        </mxCell>
        <mxCell id="A-M6z1SIhGvRbmHf0a0M-104" value="+&amp;nbsp;update_game_over() : void;" style="text;strokeColor=none;fillColor=none;align=left;verticalAlign=middle;spacingLeft=4;spacingRight=4;overflow=hidden;points=[[0,0.5],[1,0.5]];portConstraint=eastwest;rotatable=0;whiteSpace=wrap;html=1;fontFamily=Helvetica;fontColor=#000000;" vertex="1" parent="A-M6z1SIhGvRbmHf0a0M-92">
          <mxGeometry y="240" width="340" height="30" as="geometry" />
        </mxCell>
        <mxCell id="A-M6z1SIhGvRbmHf0a0M-103" value="+&amp;nbsp;update_points() : void;" style="text;strokeColor=none;fillColor=none;align=left;verticalAlign=middle;spacingLeft=4;spacingRight=4;overflow=hidden;points=[[0,0.5],[1,0.5]];portConstraint=eastwest;rotatable=0;whiteSpace=wrap;html=1;fontFamily=Helvetica;fontColor=#000000;" vertex="1" parent="A-M6z1SIhGvRbmHf0a0M-92">
          <mxGeometry y="270" width="340" height="30" as="geometry" />
        </mxCell>
        <mxCell id="A-M6z1SIhGvRbmHf0a0M-102" value="+ analyze() : void;" style="text;strokeColor=none;fillColor=none;align=left;verticalAlign=middle;spacingLeft=4;spacingRight=4;overflow=hidden;points=[[0,0.5],[1,0.5]];portConstraint=eastwest;rotatable=0;whiteSpace=wrap;html=1;fontFamily=Helvetica;fontColor=#000000;" vertex="1" parent="A-M6z1SIhGvRbmHf0a0M-92">
          <mxGeometry y="300" width="340" height="30" as="geometry" />
        </mxCell>
        <mxCell id="A-M6z1SIhGvRbmHf0a0M-100" value="+ on_restart_button_clicked() : void;" style="text;strokeColor=none;fillColor=none;align=left;verticalAlign=middle;spacingLeft=4;spacingRight=4;overflow=hidden;points=[[0,0.5],[1,0.5]];portConstraint=eastwest;rotatable=0;whiteSpace=wrap;html=1;fontFamily=Helvetica;fontColor=#000000;" vertex="1" parent="A-M6z1SIhGvRbmHf0a0M-92">
          <mxGeometry y="330" width="340" height="30" as="geometry" />
        </mxCell>
        <mxCell id="A-M6z1SIhGvRbmHf0a0M-108" value="" style="endArrow=diamondThin;endFill=0;endSize=24;html=1;rounded=0;exitX=-0.001;exitY=0.424;exitDx=0;exitDy=0;fontFamily=Helvetica;entryX=1;entryY=0.5;entryDx=0;entryDy=0;fontColor=#000000;exitPerimeter=0;" edge="1" parent="WIyWlLk6GJQsqaUBKTNV-1" source="A-M6z1SIhGvRbmHf0a0M-72" target="Ybg5_mfCKvcVvenesTSS-8">
          <mxGeometry width="160" relative="1" as="geometry">
            <mxPoint x="150" y="184" as="sourcePoint" />
            <mxPoint x="150" y="-30" as="targetPoint" />
            <Array as="points" />
          </mxGeometry>
        </mxCell>
        <mxCell id="A-M6z1SIhGvRbmHf0a0M-109" value="" style="endArrow=diamondThin;endFill=0;endSize=24;html=1;rounded=0;exitX=-0.001;exitY=0.424;exitDx=0;exitDy=0;fontFamily=Helvetica;entryX=1;entryY=0.5;entryDx=0;entryDy=0;fontColor=#000000;exitPerimeter=0;" edge="1" parent="WIyWlLk6GJQsqaUBKTNV-1">
          <mxGeometry width="160" relative="1" as="geometry">
            <mxPoint x="600" y="10" as="sourcePoint" />
            <mxPoint x="520" y="10" as="targetPoint" />
            <Array as="points" />
          </mxGeometry>
        </mxCell>
        <mxCell id="A-M6z1SIhGvRbmHf0a0M-111" value="1" style="text;html=1;align=center;verticalAlign=middle;resizable=0;points=[];autosize=1;strokeColor=none;fillColor=none;fontColor=#000000;" vertex="1" parent="WIyWlLk6GJQsqaUBKTNV-1">
          <mxGeometry x="110" y="-50" width="30" height="30" as="geometry" />
        </mxCell>
        <mxCell id="A-M6z1SIhGvRbmHf0a0M-112" value="1" style="text;html=1;align=center;verticalAlign=middle;resizable=0;points=[];autosize=1;strokeColor=none;fillColor=none;fontColor=#000000;" vertex="1" parent="WIyWlLk6GJQsqaUBKTNV-1">
          <mxGeometry x="530" y="-30" width="30" height="30" as="geometry" />
        </mxCell>
      </root>
    </mxGraphModel>
  </diagram>
</mxfile>
